<?xml version="1.0" encoding="utf-8"?>
<!-- Generator: Adobe Illustrator 24.1.3, SVG Export Plug-In . SVG Version: 6.00 Build 0)  -->
<svg version="1.1" id="Layer_1" xmlns="http://www.w3.org/2000/svg" xmlns:xlink="http://www.w3.org/1999/xlink" x="0px" y="0px"
	 viewBox="0 0 60 60" style="enable-background:new 0 0 60 60;" xml:space="preserve">
<style type="text/css">
	.st0{fill:#FFFFFF;}
</style>
<g id="rz2mip.tif">
	<g>
		<path class="st0" d="M41.86,54.58c-0.89,0.61-1.33,1.08-1.87,1.25c-2.72,0.82-5.42,2.02-8.2,2.25C20.78,58.99,10.61,55.91,0.89,51
			c-0.74-0.37-1.18-0.75-0.67-1.68C3.08,44.05,4.3,38.23,5.79,32.5c1.34-5.12,2.75-10.24,4.4-15.26c1.04-3.16,2.91-5.94,5.23-8.41
			c6.46-6.86,23.1-6.91,28.1,4.22c0.14,0.32,0.39,0.58,0.74,1.11c0.51-0.7,1.07-1.21,1.28-1.83c0.99-2.89,1.97-5.79,2.8-8.72
			c0.59-2.1,0.98-2.34,2.78-1.03c1.13,0.83,2.18,1.76,3.29,2.62c0.85,0.66,0.25,1.19-0.14,1.7c-1.55,2.02-3.13,4.02-4.68,6.03
			c-0.25,0.33-0.46,0.69-0.68,1.05c-1.39,2.26-1.33,2.38,1.15,3.04c4.07,1.08,6.77,3.69,8.4,7.5c3.42,7.99,0.9,19.51-5.55,25.33
			c-1.81,1.63-3.84,2.61-5.9,2.8c0.06-0.36,0.06-0.71,0.17-1.02c0.83-2.29,0.77-4.59,0.03-6.89c-1.19-3.74-4.56-5.88-8.01-5.09
			c-3.49,0.79-5.87,4.49-5.32,8.26c0.5,3.39,2.6,5.6,6.01,6.32C40.39,54.32,40.88,54.4,41.86,54.58z M14.67,16.58
			c0.1,0.2,0.2,0.4,0.3,0.6c0.45-0.06,0.89-0.16,1.34-0.17c2.58-0.05,5.2-0.41,7.73-0.06c4.94,0.7,8.83,3.16,11.01,7.9
			c0.29,0.64,0.84,1.17,1.27,1.75c0.61-0.73,1.3-1.41,1.8-2.21c0.2-0.33,0.13-0.95-0.03-1.36c-0.53-1.34-0.96-2.78-1.78-3.93
			c-3.64-5.1-11.86-7.44-17.65-5.02C17.22,14.67,15.99,15.73,14.67,16.58z M12.05,22.14c2.44,0,4.7-0.09,6.95,0.02
			c5.34,0.24,9.64,3.51,11.36,8.51c0.58,1.69,1.47,1.91,2.51,0.43c0.47-0.67,0.68-1.72,0.6-2.55c-0.09-0.89-0.59-1.76-1.04-2.58
			c-3.92-7.12-12.46-8.5-18.27-6.81C12.67,19.59,12.3,20.93,12.05,22.14z M52.16,44.81c0.3-0.74,0.51-1.08,0.58-1.46
			C54.06,35.9,50.5,29.31,43.58,27c-2.29-0.76-3.1-0.45-4.47,1.53c-0.68,0.97-0.64,1.54,0.65,1.84c4.11,0.95,6.99,3.53,8.96,7.14
			c0.94,1.72,1.67,3.57,2.5,5.35C51.47,43.4,51.73,43.93,52.16,44.81z M28.78,32.66c-0.67-1.1-1.25-2.6-2.28-3.66
			c-3.03-3.11-6.87-4.61-11.17-4.73c-1.25-0.04-2.56,0.35-3.78,0.76c-1.3,0.43-1.49,1.69-1.32,2.83c0.03,0.2,1.38,0.39,2.08,0.28
			c5.87-0.94,10.76,1.57,12.84,6.64c0.26,0.64,0.7,1.2,1.05,1.8c0.63-0.57,1.34-1.08,1.85-1.74C28.4,34.37,28.45,33.69,28.78,32.66z
			 M55.56,37.7c0.12,0.01,0.24,0.01,0.36,0.02c0.11-0.33,0.27-0.65,0.33-0.99c1.01-5.99-1.85-12.39-6.99-15.63
			c-3.02-1.91-3.71-1.72-5.31,1.43c-0.02,0.05-0.05,0.09-0.08,0.14c-0.49,0.85-0.24,1.38,0.71,1.58c5.78,1.18,8.6,5.22,10.13,10.5
			C55.01,35.72,55.28,36.71,55.56,37.7z M21.7,10.11c0,0.14,0.01,0.28,0.01,0.42c8.7-1.16,15.27,1.36,18.01,10.35
			c2.86-2.34,2.03-5.72,0.47-7.61c-3.45-4.18-11.9-6.3-16.89-4.15C22.74,9.37,22.24,9.78,21.7,10.11z M12.16,30.09
			c-0.21,0.02-0.92-0.06-1.54,0.15c-0.45,0.16-0.99,0.61-1.13,1.05c-0.51,1.51-0.05,2.05,1.59,2.11c4.45,0.17,8.24,1.32,9.53,6.29
			c0.25,0.96,0.86,1.06,1.66,0.57c0.93-0.58,1.35-1.27,1.06-2.46C22.19,33.06,18.16,30.12,12.16,30.09z M27.03,54.49
			c2.36,0,4.49,0,6.62,0c-1.09-2.89-2.08-5.66-3.19-8.37c-0.45-1.09-1.03-2.18-1.79-3.06c-1.24-1.45-2.97-1.33-4.34,0.2
			C28.47,46.04,28.3,50,27.03,54.49z M18.9,46.29c1.71,1.76,2.61,3.79,1.94,6.14c-0.45,1.56,0.14,1.98,1.51,2.01
			c0.57,0.01,1.2,0.22,1.69,0.03c0.54-0.21,1.28-0.69,1.38-1.17c0.55-2.64,0.02-5.09-1.92-7.05C22.09,44.82,20.54,44.85,18.9,46.29z
			 M10.38,34.81c-1.39-0.27-1.54,0.82-1.73,1.89c-0.17,0.97,0.31,1.27,1.19,1.39c3.78,0.51,4.5,1.17,5.43,5.01
			c0.21,0.86,0.62,0.99,1.34,0.67c0.89-0.4,1.4-0.99,1.27-2.06C17.45,38.09,14.2,35.03,10.38,34.81z M18.8,52.15
			c-0.43-1.09-0.76-2.24-1.33-3.25c-0.65-1.15-1.77-1.57-3.07-1.19c-0.95,0.28-1.55,0.75-1,1.93c0.29,0.63,0.34,1.41,0.33,2.12
			c-0.02,1.09,0.47,1.63,1.51,1.76c0.56,0.07,1.12,0.17,1.69,0.26C18.12,53.97,18.7,53.48,18.8,52.15z M13.25,45.11
			c-0.02-2.7-1.77-4.97-3.8-5.57c-0.93-0.28-1.55-0.03-1.77,0.91c-0.21,0.9-1.15,1.82,0.29,2.67c0.87,0.52,1.48,1.47,2.24,2.2
			c0.42,0.4,1.06,1.12,1.34,1.01C12.29,46.05,12.88,45.39,13.25,45.11z M5.86,49.21c-0.01-0.13-0.02-0.26-0.03-0.39
			c0.33-0.13,0.67-0.26,1-0.4c1.58-0.66,1.85-2.11,0.6-3.28c-0.57-0.53-1.08-0.6-1.48,0.19c-0.5,0.97-1.01,1.93-1.51,2.9
			c-0.47,0.92-0.26,1.63,0.71,2.01c1.55,0.61,3.1,1.22,4.68,1.71c0.5,0.16,1.12-0.07,1.69-0.12c-0.27-0.62-0.39-1.44-0.86-1.82
			c-0.51-0.41-1.34-0.47-2.04-0.58C7.7,49.31,6.78,49.29,5.86,49.21z M41.94,34.95c-1.24-1.85-4.41-3.14-6.09-2.31
			c-0.85,0.42-1.39,1.49-2.07,2.26c1,0.55,2.04,1.61,3,1.54C38.48,36.32,40.13,35.52,41.94,34.95z M28.98,39.54
			c2.39,1.9,3.14,1.77,4.33-0.57c0.53-1.04,0.05-1.44-0.87-1.62C31.15,37.09,29.86,37.9,28.98,39.54z"/>
	</g>
</g>
</svg>
